# xmcd
#
# Track frame offsets:
#	150
#	16115
#	26267
#	42970
#	68045
#	93047
#	108115
#	131182
#	147972
#	164135
#
# Disc length: 2413 seconds
#
# Revision: 1
# Processed by: cddbd v1.5PL3 Copyright (c) Steve Scherf et al.
# Submitted via: CDex 1.50Beta5
#
DISCID=7b096b0a
DTITLE=Scoobie Do - Doin' Our Scoobie
DYEAR=1999
DGENRE=Blues
TTITLE0=Do The Scoobie
TTITLE1=白い蝶々
TTITLE2=朝が来るまで
TTITLE3=December Song
TTITLE4=都会
TTITLE5=Gimme Some More
TTITLE6=きまぐれ天使
TTITLE7=天国への階段
TTITLE8=のら犬のブルーズ
TTITLE9=悪い夢
EXTD=
EXTT0=
EXTT1=
EXTT2=
EXTT3=
EXTT4=
EXTT5=
EXTT6=
EXTT7=
EXTT8=
EXTT9=
PLAYORDER=
